<svg width="24" height="34" viewBox="0 0 24 34" fill="none" xmlns="http://www.w3.org/2000/svg">
<path d="M23.6667 12C23.6667 10.4679 23.3649 8.95082 22.7786 7.53536C22.1923 6.11989 21.3329 4.83377 20.2496 3.75042C19.1662 2.66707 17.8801 1.80771 16.4646 1.2214C15.0492 0.635095 13.5321 0.333328 12 0.333328C10.4679 0.333328 8.95082 0.635095 7.53536 1.2214C6.11989 1.80771 4.83377 2.66707 3.75042 3.75042C2.66707 4.83377 1.80771 6.11989 1.2214 7.53536C0.635095 8.95082 0.333328 10.4679 0.333328 12C0.333328 14.3117 1.01666 16.4617 2.175 18.275H2.16166C6.095 24.4333 12 33.6667 12 33.6667L21.8383 18.275H21.8267C23.0273 16.4023 23.6659 14.2246 23.6667 12ZM12 17C10.6739 17 9.40214 16.4732 8.46446 15.5355C7.52678 14.5978 7 13.3261 7 12C7 10.6739 7.52678 9.40214 8.46446 8.46446C9.40214 7.52678 10.6739 7 12 7C13.3261 7 14.5978 7.52678 15.5355 8.46446C16.4732 9.40214 17 10.6739 17 12C17 13.3261 16.4732 14.5978 15.5355 15.5355C14.5978 16.4732 13.3261 17 12 17Z" fill="white"/>
</svg>
