<svg width="51" height="48" viewBox="0 0 51 48" fill="none" xmlns="http://www.w3.org/2000/svg">
<path d="M50.8333 35.6668L39.1667 47.3334L31 39.1668L34.5 35.6668L39.1667 40.3334L47.3333 32.1667L50.8333 35.6668ZM26.3333 40.3334C26.3333 36.8334 27.5 33.8001 29.6 31.2334L21.6667 26.3334V12.3334H25.1667V24.4667L32.4 28.9001C34.7333 27.2668 37.3 26.3334 40.3333 26.3334C42.6667 26.3334 45 27.0334 46.8667 27.9667C47.1 26.5667 47.3333 25.4001 47.3333 24.0001C47.3333 11.1667 36.8333 0.666748 24 0.666748C11.1667 0.666748 0.666656 11.1667 0.666656 24.0001C0.666656 36.8334 11.1667 47.3334 24 47.3334C25.4 47.3334 26.8 47.1001 27.9667 46.8667C27.0333 45.0001 26.3333 42.6668 26.3333 40.3334Z" fill="#FDCB9E"/>
</svg>
