<svg width="48" height="48" viewBox="0 0 48 48" fill="none" xmlns="http://www.w3.org/2000/svg">
<path d="M24.525 0.524994C11.2714 0.524994 0.524994 11.2714 0.524994 24.525C0.524994 37.7786 11.2714 48.525 24.525 48.525C37.7786 48.525 48.525 37.7786 48.525 24.525C48.525 11.2714 37.7786 0.524994 24.525 0.524994ZM33.9803 31.9018L32.4482 33.9911C32.4149 34.0366 32.3729 34.075 32.3247 34.1042C32.2764 34.1334 32.2229 34.1528 32.1671 34.1613C32.1114 34.1698 32.0545 34.1671 31.9998 34.1535C31.945 34.14 31.8935 34.1157 31.8482 34.0821L22.9875 27.6214C22.9323 27.5818 22.8874 27.5295 22.8567 27.4689C22.8259 27.4083 22.8101 27.3412 22.8107 27.2732V12.525C22.8107 12.2893 23.0036 12.0964 23.2393 12.0964H25.8161C26.0518 12.0964 26.2446 12.2893 26.2446 12.525V25.7839L33.8839 31.3071C34.0768 31.4411 34.1196 31.7089 33.9803 31.9018Z" fill="#51B8BF"/>
</svg>
